<svg width="300" height="94" viewBox="0 0 300 94" fill="none" xmlns="http://www.w3.org/2000/svg">
<path d="M194.169 77.9368C194.169 76.9291 194.376 76.0366 194.789 75.2596C195.214 74.4825 195.784 73.8814 196.501 73.4565C197.229 73.0194 198.037 72.8008 198.923 72.8008C199.579 72.8008 200.222 72.9465 200.853 73.2379C201.497 73.5172 202.007 73.8936 202.383 74.3671V69.5225H204.478V83H202.383V81.4883C202.043 81.974 201.57 82.3747 200.963 82.6904C200.368 83.0061 199.682 83.1639 198.905 83.1639C198.03 83.1639 197.229 82.9454 196.501 82.5083C195.784 82.059 195.214 81.4398 194.789 80.6505C194.376 79.8492 194.169 78.9446 194.169 77.9368ZM202.383 77.9733C202.383 77.2812 202.238 76.6802 201.946 76.1702C201.667 75.6602 201.297 75.2717 200.835 75.0046C200.374 74.7375 199.876 74.6039 199.342 74.6039C198.808 74.6039 198.31 74.7375 197.848 75.0046C197.387 75.2596 197.011 75.642 196.719 76.152C196.44 76.6498 196.3 77.2447 196.3 77.9368C196.3 78.6289 196.44 79.236 196.719 79.7581C197.011 80.2802 197.387 80.6809 197.848 80.9602C198.322 81.2273 198.82 81.3608 199.342 81.3608C199.876 81.3608 200.374 81.2273 200.835 80.9602C201.297 80.693 201.667 80.3045 201.946 79.7945C202.238 79.2724 202.383 78.6653 202.383 77.9733ZM206.513 77.9368C206.513 76.9291 206.719 76.0366 207.132 75.2596C207.557 74.4825 208.128 73.8814 208.844 73.4565C209.573 73.0194 210.374 72.8008 211.248 72.8008C212.037 72.8008 212.723 72.9587 213.306 73.2744C213.901 73.5779 214.375 73.9604 214.727 74.4218V72.9647H216.821V83H214.727V81.5065C214.375 81.9801 213.895 82.3747 213.288 82.6904C212.681 83.0061 211.989 83.1639 211.212 83.1639C210.35 83.1639 209.56 82.9454 208.844 82.5083C208.128 82.059 207.557 81.4398 207.132 80.6505C206.719 79.8492 206.513 78.9446 206.513 77.9368ZM214.727 77.9733C214.727 77.2812 214.581 76.6802 214.29 76.1702C214.01 75.6602 213.64 75.2717 213.179 75.0046C212.717 74.7375 212.219 74.6039 211.685 74.6039C211.151 74.6039 210.653 74.7375 210.192 75.0046C209.73 75.2596 209.354 75.642 209.063 76.152C208.783 76.6498 208.644 77.2447 208.644 77.9368C208.644 78.6289 208.783 79.236 209.063 79.7581C209.354 80.2802 209.73 80.6809 210.192 80.9602C210.665 81.2273 211.163 81.3608 211.685 81.3608C212.219 81.3608 212.717 81.2273 213.179 80.9602C213.64 80.693 214.01 80.3045 214.29 79.7945C214.581 79.2724 214.727 78.6653 214.727 77.9733ZM223.191 83.1639C222.402 83.1639 221.691 83.0243 221.06 82.745C220.441 82.4536 219.949 82.0651 219.585 81.5794C219.221 81.0816 219.026 80.5291 219.002 79.922H221.151C221.187 80.347 221.388 80.7052 221.752 80.9966C222.128 81.2759 222.596 81.4155 223.154 81.4155C223.737 81.4155 224.187 81.3062 224.502 81.0877C224.83 80.857 224.994 80.5656 224.994 80.2134C224.994 79.837 224.812 79.5578 224.448 79.3756C224.095 79.1935 223.531 78.9932 222.754 78.7746C222.001 78.5682 221.388 78.3679 220.914 78.1736C220.441 77.9793 220.028 77.6819 219.676 77.2812C219.336 76.8805 219.166 76.3523 219.166 75.6967C219.166 75.1624 219.324 74.6767 219.639 74.2396C219.955 73.7904 220.404 73.4383 220.987 73.1833C221.582 72.9283 222.262 72.8008 223.027 72.8008C224.168 72.8008 225.085 73.0922 225.777 73.675C226.481 74.2457 226.858 75.0289 226.906 76.0245H224.83C224.794 75.5752 224.612 75.2171 224.284 74.9499C223.956 74.6828 223.513 74.5493 222.954 74.5493C222.408 74.5493 221.989 74.6525 221.697 74.8589C221.406 75.0653 221.26 75.3385 221.26 75.6784C221.26 75.9456 221.357 76.1702 221.552 76.3523C221.746 76.5344 221.983 76.6802 222.262 76.7894C222.541 76.8866 222.954 77.0141 223.501 77.1719C224.229 77.3662 224.824 77.5665 225.285 77.7729C225.759 77.9672 226.166 78.2586 226.506 78.6471C226.846 79.0357 227.022 79.5517 227.034 80.1952C227.034 80.7659 226.876 81.2759 226.56 81.7251C226.245 82.1744 225.795 82.5265 225.213 82.7814C224.642 83.0364 223.968 83.1639 223.191 83.1639ZM234.468 72.8008C235.233 72.8008 235.913 72.9647 236.508 73.2926C237.115 73.6204 237.588 74.1061 237.928 74.7496C238.28 75.3931 238.457 76.1702 238.457 77.0808V83H236.398V77.3905C236.398 76.492 236.174 75.8059 235.725 75.3324C235.275 74.8467 234.662 74.6039 233.885 74.6039C233.108 74.6039 232.489 74.8467 232.027 75.3324C231.578 75.8059 231.354 76.492 231.354 77.3905V83H229.277V69.5225H231.354V74.1304C231.706 73.7054 232.149 73.3776 232.683 73.1469C233.229 72.9162 233.824 72.8008 234.468 72.8008ZM243.181 74.4582C243.533 73.9725 244.013 73.5779 244.62 73.2744C245.239 72.9587 245.925 72.8008 246.678 72.8008C247.564 72.8008 248.366 73.0133 249.082 73.4383C249.799 73.8632 250.363 74.4703 250.776 75.2596C251.189 76.0366 251.395 76.9291 251.395 77.9368C251.395 78.9446 251.189 79.8492 250.776 80.6505C250.363 81.4398 249.792 82.059 249.064 82.5083C248.348 82.9454 247.552 83.1639 246.678 83.1639C245.901 83.1639 245.209 83.0121 244.602 82.7086C244.007 82.405 243.533 82.0165 243.181 81.543V83H241.105V69.5225H243.181V74.4582ZM249.282 77.9368C249.282 77.2447 249.137 76.6498 248.845 76.152C248.566 75.642 248.19 75.2596 247.716 75.0046C247.255 74.7375 246.757 74.6039 246.223 74.6039C245.701 74.6039 245.203 74.7375 244.729 75.0046C244.268 75.2717 243.891 75.6602 243.6 76.1702C243.321 76.6802 243.181 77.2812 243.181 77.9733C243.181 78.6653 243.321 79.2724 243.6 79.7945C243.891 80.3045 244.268 80.693 244.729 80.9602C245.203 81.2273 245.701 81.3608 246.223 81.3608C246.757 81.3608 247.255 81.2273 247.716 80.9602C248.19 80.6809 248.566 80.2802 248.845 79.7581C249.137 79.236 249.282 78.6289 249.282 77.9368ZM257.801 83.1639C256.854 83.1639 255.998 82.9514 255.233 82.5265C254.468 82.0894 253.867 81.4823 253.43 80.7052C252.993 79.916 252.774 79.0053 252.774 77.9733C252.774 76.9533 252.999 76.0488 253.448 75.2596C253.898 74.4703 254.511 73.8632 255.288 73.4383C256.065 73.0133 256.933 72.8008 257.892 72.8008C258.852 72.8008 259.72 73.0133 260.497 73.4383C261.274 73.8632 261.887 74.4703 262.336 75.2596C262.785 76.0488 263.01 76.9533 263.01 77.9733C263.01 78.9932 262.779 79.8977 262.318 80.687C261.857 81.4762 261.225 82.0894 260.424 82.5265C259.635 82.9514 258.76 83.1639 257.801 83.1639ZM257.801 81.3608C258.335 81.3608 258.833 81.2334 259.295 80.9784C259.768 80.7234 260.151 80.3409 260.442 79.831C260.733 79.321 260.879 78.7018 260.879 77.9733C260.879 77.2447 260.74 76.6316 260.46 76.1338C260.181 75.6238 259.811 75.2413 259.349 74.9864C258.888 74.7314 258.39 74.6039 257.856 74.6039C257.322 74.6039 256.824 74.7314 256.362 74.9864C255.913 75.2413 255.555 75.6238 255.288 76.1338C255.021 76.6316 254.887 77.2447 254.887 77.9733C254.887 79.0539 255.16 79.8917 255.707 80.4866C256.265 81.0694 256.963 81.3608 257.801 81.3608ZM264.371 77.9368C264.371 76.9291 264.577 76.0366 264.99 75.2596C265.415 74.4825 265.985 73.8814 266.702 73.4565C267.43 73.0194 268.232 72.8008 269.106 72.8008C269.895 72.8008 270.581 72.9587 271.164 73.2744C271.759 73.5779 272.232 73.9604 272.584 74.4218V72.9647H274.679V83H272.584V81.5065C272.232 81.9801 271.753 82.3747 271.146 82.6904C270.539 83.0061 269.847 83.1639 269.069 83.1639C268.207 83.1639 267.418 82.9454 266.702 82.5083C265.985 82.059 265.415 81.4398 264.99 80.6505C264.577 79.8492 264.371 78.9446 264.371 77.9368ZM272.584 77.9733C272.584 77.2812 272.439 76.6802 272.147 76.1702C271.868 75.6602 271.498 75.2717 271.036 75.0046C270.575 74.7375 270.077 74.6039 269.543 74.6039C269.009 74.6039 268.511 74.7375 268.05 75.0046C267.588 75.2596 267.212 75.642 266.92 76.152C266.641 76.6498 266.501 77.2447 266.501 77.9368C266.501 78.6289 266.641 79.236 266.92 79.7581C267.212 80.2802 267.588 80.6809 268.05 80.9602C268.523 81.2273 269.021 81.3608 269.543 81.3608C270.077 81.3608 270.575 81.2273 271.036 80.9602C271.498 80.693 271.868 80.3045 272.147 79.7945C272.439 79.2724 272.584 78.6653 272.584 77.9733ZM279.482 74.4218C279.786 73.9118 280.187 73.5172 280.684 73.2379C281.194 72.9465 281.795 72.8008 282.487 72.8008V74.9499H281.959C281.146 74.9499 280.527 75.1563 280.102 75.5692C279.689 75.982 279.482 76.6984 279.482 77.7183V83H277.406V72.9647H279.482V74.4218ZM283.704 77.9368C283.704 76.9291 283.91 76.0366 284.323 75.2596C284.748 74.4825 285.319 73.8814 286.035 73.4565C286.764 73.0194 287.571 72.8008 288.457 72.8008C289.113 72.8008 289.757 72.9465 290.388 73.2379C291.031 73.5172 291.541 73.8936 291.918 74.3671V69.5225H294.012V83H291.918V81.4883C291.578 81.974 291.104 82.3747 290.497 82.6904C289.902 83.0061 289.216 83.1639 288.439 83.1639C287.565 83.1639 286.764 82.9454 286.035 82.5083C285.319 82.059 284.748 81.4398 284.323 80.6505C283.91 79.8492 283.704 78.9446 283.704 77.9368ZM291.918 77.9733C291.918 77.2812 291.772 76.6802 291.481 76.1702C291.201 75.6602 290.831 75.2717 290.37 75.0046C289.908 74.7375 289.411 74.6039 288.876 74.6039C288.342 74.6039 287.844 74.7375 287.383 75.0046C286.921 75.2596 286.545 75.642 286.254 76.152C285.974 76.6498 285.835 77.2447 285.835 77.9368C285.835 78.6289 285.974 79.236 286.254 79.7581C286.545 80.2802 286.921 80.6809 287.383 80.9602C287.856 81.2273 288.354 81.3608 288.876 81.3608C289.411 81.3608 289.908 81.2273 290.37 80.9602C290.831 80.693 291.201 80.3045 291.481 79.7945C291.772 79.2724 291.918 78.6653 291.918 77.9733Z" fill="white"/>
<path fill-rule="evenodd" clip-rule="evenodd" d="M12.9228 72.1025V30.648L22.9246 23.5618V44.9976L35.8474 35.9627V0L0 24.8018V81.1375L12.9228 72.1025ZM45.6721 21.2585V62.7131L35.6702 69.7993V48.3634L22.7475 57.3984V93.361L58.5948 68.5592V12.2236L45.6721 21.2585Z" fill="url(#paint0_linear_460_782)"/>
<path d="M107.828 32.0179V61.6805H101.878V49.0591H89.1717V61.6805H83.2222V32.0179H89.1717V44.2144H101.878V32.0179H107.828ZM136.207 38.1374L121.63 72.8146H115.299L120.398 61.0856L110.964 38.1374H117.636L123.713 54.5836L129.875 38.1374H136.207ZM145.364 41.5372C146.128 40.4606 147.177 39.5682 148.508 38.8599C149.868 38.1233 151.412 37.755 153.14 37.755C155.152 37.755 156.965 38.2508 158.58 39.2424C160.223 40.2339 161.512 41.6505 162.447 43.492C163.41 45.3052 163.892 47.4159 163.892 49.824C163.892 52.2321 163.41 54.3711 162.447 56.241C161.512 58.0825 160.223 59.5132 158.58 60.5331C156.965 61.5531 155.152 62.063 153.14 62.063C151.412 62.063 149.882 61.7089 148.551 61.0006C147.248 60.2923 146.185 59.3999 145.364 58.3233V72.8996H139.414V38.1374H145.364V41.5372ZM157.815 49.824C157.815 48.4074 157.518 47.1892 156.923 46.1693C156.356 45.121 155.591 44.3278 154.628 43.7895C153.693 43.2512 152.673 42.982 151.568 42.982C150.491 42.982 149.472 43.2654 148.508 43.832C147.573 44.3703 146.808 45.1635 146.213 46.2118C145.647 47.26 145.364 48.4924 145.364 49.909C145.364 51.3255 145.647 52.5579 146.213 53.6062C146.808 54.6544 147.573 55.4619 148.508 56.0285C149.472 56.5668 150.491 56.8359 151.568 56.8359C152.673 56.8359 153.693 56.5526 154.628 55.986C155.591 55.4194 156.356 54.6119 156.923 53.5637C157.518 52.5154 157.815 51.2689 157.815 49.824ZM190.101 49.399C190.101 50.249 190.044 51.0139 189.931 51.6938H172.72C172.862 53.3937 173.457 54.7253 174.505 55.6885C175.553 56.6518 176.842 57.1334 178.372 57.1334C180.582 57.1334 182.154 56.1843 183.089 54.2861H189.506C188.826 56.5526 187.523 58.4225 185.596 59.8957C183.67 61.3406 181.304 62.063 178.5 62.063C176.233 62.063 174.193 61.5672 172.38 60.5756C170.595 59.5557 169.193 58.125 168.173 56.2835C167.181 54.442 166.685 52.3171 166.685 49.909C166.685 47.4725 167.181 45.3335 168.173 43.492C169.164 41.6505 170.553 40.2339 172.338 39.2424C174.122 38.2508 176.176 37.755 178.5 37.755C180.738 37.755 182.735 38.2366 184.492 39.1999C186.276 40.1631 187.65 41.5372 188.614 43.322C189.605 45.0785 190.101 47.1042 190.101 49.399ZM183.939 47.6992C183.911 46.1693 183.358 44.9511 182.282 44.0445C181.205 43.1095 179.888 42.6421 178.33 42.6421C176.856 42.6421 175.61 43.0954 174.59 44.002C173.598 44.8802 172.989 46.1126 172.763 47.6992H183.939ZM200.393 41.7921C201.158 40.5456 202.15 39.5682 203.368 38.8599C204.615 38.1516 206.031 37.7975 207.618 37.7975V44.0445H206.045C204.175 44.0445 202.759 44.4836 201.796 45.3619C200.861 46.2401 200.393 47.77 200.393 49.9515V61.6805H194.444V38.1374H200.393V41.7921ZM244.262 38.1374L237.378 61.6805H230.961L226.669 45.2344L222.377 61.6805H215.917L208.99 38.1374H215.025L219.189 56.071L223.694 38.1374H229.983L234.403 56.0285L238.568 38.1374H244.262ZM269.367 49.399C269.367 50.249 269.311 51.0139 269.197 51.6938H251.986C252.128 53.3937 252.723 54.7253 253.771 55.6885C254.819 56.6518 256.108 57.1334 257.638 57.1334C259.848 57.1334 261.42 56.1843 262.355 54.2861H268.772C268.092 56.5526 266.789 58.4225 264.863 59.8957C262.936 61.3406 260.57 62.063 257.766 62.063C255.499 62.063 253.459 61.5672 251.646 60.5756C249.861 59.5557 248.459 58.125 247.439 56.2835C246.447 54.442 245.952 52.3171 245.952 49.909C245.952 47.4725 246.447 45.3335 247.439 43.492C248.431 41.6505 249.819 40.2339 251.604 39.2424C253.388 38.2508 255.442 37.755 257.766 37.755C260.004 37.755 262.001 38.2366 263.758 39.1999C265.542 40.1631 266.917 41.5372 267.88 43.322C268.871 45.0785 269.367 47.1042 269.367 49.399ZM263.205 47.6992C263.177 46.1693 262.624 44.9511 261.548 44.0445C260.471 43.1095 259.154 42.6421 257.596 42.6421C256.122 42.6421 254.876 43.0954 253.856 44.002C252.864 44.8802 252.255 46.1126 252.029 47.6992H263.205ZM279.659 41.5797C280.424 40.4464 281.473 39.5257 282.804 38.8174C284.164 38.1091 285.708 37.755 287.436 37.755C289.448 37.755 291.261 38.2508 292.876 39.2424C294.519 40.2339 295.808 41.6505 296.743 43.492C297.706 45.3052 298.188 47.4159 298.188 49.824C298.188 52.2321 297.706 54.3711 296.743 56.241C295.808 58.0825 294.519 59.5132 292.876 60.5331C291.261 61.5531 289.448 62.063 287.436 62.063C285.68 62.063 284.136 61.723 282.804 61.0431C281.501 60.3348 280.453 59.4282 279.659 58.3233V61.6805H273.71V30.2331H279.659V41.5797ZM292.111 49.824C292.111 48.4074 291.813 47.1892 291.218 46.1693C290.652 45.121 289.887 44.3278 288.924 43.7895C287.989 43.2512 286.969 42.982 285.864 42.982C284.787 42.982 283.767 43.2654 282.804 43.832C281.869 44.3703 281.104 45.1635 280.509 46.2118C279.943 47.26 279.659 48.4924 279.659 49.909C279.659 51.3255 279.943 52.5579 280.509 53.6062C281.104 54.6544 281.869 55.4619 282.804 56.0285C283.767 56.5668 284.787 56.8359 285.864 56.8359C286.969 56.8359 287.989 56.5526 288.924 55.986C289.887 55.4194 290.652 54.6119 291.218 53.5637C291.813 52.5154 292.111 51.2689 292.111 49.824Z" fill="white"/>
<defs>
<linearGradient id="paint0_linear_460_782" x1="29.2974" y1="0" x2="29.2974" y2="93.3611" gradientUnits="userSpaceOnUse">
<stop stop-color="#1EC9FF"/>
<stop offset="1" stop-color="#1E78FF"/>
</linearGradient>
</defs>
</svg>
